<svg xmlns="http://www.w3.org/2000/svg" viewBox="0 0 159.7 157.46"><defs><style>.cls-1{fill:#b395a5;}</style></defs><title>fill_logo</title><g id="Layer_2" data-name="Layer 2"><g id="Layer_1-2" data-name="Layer 1"><path class="cls-1" d="M147.7,92.24a.73.73,0,0,1-.22-1l.1-.12c1.85-1.9,7.16-7.71,6.41-11.25,0,0-11.54-1.5-16.77-24.64,12.92-3.77,24.23-20.72,22.26-30.5C157,12.63,143.6,0,131.56,0s-15.49,10.9-15.49,23.26c0,.91.05,1.87.12,2.87a53.07,53.07,0,0,0-13.93-3.35c-26.2-3.42-41.89-16.22-45.07-19a.44.44,0,0,0-.63,0,.41.41,0,0,0-.11.23c-.4,2.48-1.35,10.23.94,17.21a13.7,13.7,0,0,0-5.5-1.15c-3,0-7.06,2.13-11,5.2.06-.26.11-.52.16-.77C43.83,10.41,33.82,1.7,20.52,3.42,9.27,4.87,0,12.86,0,24.5s9.42,22,20.76,22a15.82,15.82,0,0,0,3.29-.32C20.2,78,5.73,79.87,5.73,79.87c-.74,3.51,4.49,9.27,6.38,11.21a.82.82,0,0,1-.1,1.16l-.07.06a27.48,27.48,0,0,1-8,2.6s-4.29,20.84,14.84,32.71a.41.41,0,0,1,.15.56.42.42,0,0,1-.38.2l-4.29-.21c0,15.94,23.28,29.3,51.94,29.3H93.56c28.69,0,52.16-13.05,52.16-29h-4.54a.44.44,0,0,1-.23-.83c19.16-11.85,14.84-32.74,14.84-32.74S150.75,94.06,147.7,92.24ZM58,91.63c-2.85,0-5.15-5.54-5.15-12.37S55.18,66.89,58,66.89s5.16,5.54,5.16,12.37S60.88,91.63,58,91.63Zm21.81,16.23s-7.13-2.13-7.13-4.75,3.2-4.74,7.13-4.74S87,100.5,87,103.11,79.84,107.86,79.84,107.86Zm21.82-16.23c-2.84,0-5.15-5.54-5.15-12.37s2.31-12.37,5.15-12.37,5.16,5.54,5.16,12.37S104.51,91.63,101.66,91.63Z"/></g></g></svg>