<svg xmlns="http://www.w3.org/2000/svg" viewBox="0 0 162.7 160.46"><defs><style>.cls-1{fill:none;stroke:#b395a5;stroke-miterlimit:10;stroke-width:3px;}.cls-2{fill:#b395a5;}</style></defs><title>Asset 1</title><g id="Layer_2" data-name="Layer 2"><g id="Layer_1-2" data-name="Layer 1"><g id="Layer_2-2" data-name="Layer 2-2"><path class="cls-1" d="M149.08,92.62c1.85-1.9,7.16-7.71,6.41-11.25,0,0-11.54-1.5-16.77-24.64C151.64,53,163,36,161,26.23,158.5,14.13,145.1,1.5,133.06,1.5s-15.49,10.9-15.49,23.26c0,.91.05,1.87.12,2.87a53.07,53.07,0,0,0-13.93-3.35h0c-26.2-3.42-41.89-16.22-45.07-19a.44.44,0,0,0-.63,0,.41.41,0,0,0-.11.23c-.4,2.48-1.35,10.23.94,17.21a13.7,13.7,0,0,0-5.5-1.15c-3,0-7.06,2.13-11,5.2.06-.26.11-.52.16-.77C45.33,11.91,35.32,3.2,22,4.92,10.77,6.37,1.5,14.36,1.5,26s9.42,22,20.76,22a15.82,15.82,0,0,0,3.29-.32C21.7,79.49,7.23,81.37,7.23,81.37c-.74,3.51,4.49,9.27,6.38,11.21a.82.82,0,0,1-.1,1.16l-.07.06a27.48,27.48,0,0,1-8,2.6s-4.29,20.84,14.84,32.71a.41.41,0,0,1,.15.56.42.42,0,0,1-.38.2l-4.29-.21C15.74,145.6,39,159,67.68,159H95.06c28.69,0,52.16-13.05,52.16-29h-4.54a.44.44,0,0,1-.23-.83c19.16-11.85,14.84-32.74,14.84-32.74s-5-.83-8.09-2.65a.73.73,0,0,1-.22-1Z"/><ellipse class="cls-2" cx="103.16" cy="80.76" rx="5.15" ry="12.37"/><ellipse class="cls-2" cx="59.53" cy="80.76" rx="5.15" ry="12.37"/><path class="cls-2" d="M88.48,104.61c0,2.62-7.14,4.75-7.14,4.75s-7.13-2.13-7.13-4.75,3.2-4.74,7.13-4.74S88.48,102,88.48,104.61Z"/></g></g></g></svg>