<svg id="Layer_1" data-name="Layer 1" xmlns="http://www.w3.org/2000/svg" viewBox="0 0 196.73 194.01"><defs><style>.cls-1{fill:#2c4251;}.cls-2{fill:#fff;}</style></defs><title>logo [Recovered]</title><path class="cls-1" d="M177.62,111.5c2.16-2.23,8.37-9,7.5-13.16,0,0-13.5-1.76-19.63-28.84,15.13-4.4,28.36-24.24,26-35.69C188.65,19.65,173,4.88,158.88,4.88S140.75,17.63,140.75,32.1c0,1.06.05,2.19.14,3.35a62.68,62.68,0,0,0-16.3-3.92h0c-30.66-4-49-19-52.74-22.27a.52.52,0,0,0-.73,0,.53.53,0,0,0-.14.28c-.47,2.9-1.58,12,1.1,20.14a16,16,0,0,0-6.43-1.35c-3.46,0-8.27,2.49-12.89,6.08.07-.3.14-.6.19-.9C56.21,17,44.5,6.83,28.94,8.85c-13.16,1.73-24,11.07-24,24.69S16,59.27,29.22,59.27a19.94,19.94,0,0,0,3.85-.38C28.56,96.14,11.63,98.34,11.63,98.34c-.87,4.11,5.26,10.84,7.47,13.11a1,1,0,0,1-.12,1.36h0l-.09.07c-3.58,2.13-9.37,3-9.37,3s-5,24.4,17.36,38.28a.48.48,0,0,1,.17.66.48.48,0,0,1-.44.23l-5-.25c0,18.66,27.24,34.28,60.77,34.28h32.05c33.57,0,61-15.26,61-33.93h-5.31a.52.52,0,0,1-.55-.47.53.53,0,0,1,.28-.49c22.42-13.88,17.37-38.32,17.37-38.32s-5.9-1-9.48-3.1a.85.85,0,0,1-.25-1.17Z"/><ellipse class="cls-2" cx="125.06" cy="97" rx="6.31" ry="15.14"/><ellipse class="cls-2" cx="71.65" cy="97" rx="6.31" ry="15.14"/><path class="cls-2" d="M107.09,126.18c0,3.22-8.74,5.81-8.74,5.81s-8.73-2.6-8.73-5.81,3.91-5.8,8.73-5.8S107.09,123,107.09,126.18Z"/></svg>