<svg xmlns="http://www.w3.org/2000/svg" viewBox="0 0 186.88 184.25"><defs><style>.cls-1{fill:#fff;}</style></defs><title>Asset 3</title><g id="Layer_2" data-name="Layer 2"><g id="Layer_1-2" data-name="Layer 1"><path class="cls-1" d="M172.83,107.94a.86.86,0,0,1-.25-1.18l.11-.13c2.16-2.23,8.38-9,7.51-13.17,0,0-13.51-1.75-19.63-28.83,15.12-4.41,28.36-24.24,26-35.69C183.72,14.78,168,0,154,0s-18.12,12.75-18.12,27.22c0,1.06,0,2.19.13,3.36a62.2,62.2,0,0,0-16.3-3.93c-30.66-4-49-19-52.74-22.26a.52.52,0,0,0-.73,0,.49.49,0,0,0-.13.28c-.48,2.89-1.59,12,1.1,20.13a16,16,0,0,0-6.44-1.34c-3.46,0-8.26,2.49-12.89,6.08.07-.3.14-.6.2-.9C51.29,12.15,39.58,2,24,4,10.85,5.7,0,15.05,0,28.67S11,54.39,24.29,54.39A20,20,0,0,0,28.15,54C23.63,91.26,6.7,93.46,6.7,93.46c-.86,4.11,5.26,10.84,7.47,13.12a1,1,0,0,1-.11,1.36h0L14,108c-3.59,2.13-9.38,3-9.38,3s-5,24.39,17.36,38.27a.48.48,0,0,1,.17.66.47.47,0,0,1-.44.24l-5-.25c0,18.65,27.23,34.28,60.77,34.28h32c33.57,0,61-15.27,61-33.94h-5.3a.51.51,0,0,1-.55-.47.53.53,0,0,1,.28-.49C187.36,135.48,182.3,111,182.3,111S176.41,110.07,172.83,107.94Zm-106.11-.68c-3.48,0-6.31-6.78-6.31-15.14S63.24,77,66.72,77,73,83.76,73,92.12,70.21,107.26,66.72,107.26Zm26.7,19.86s-8.73-2.6-8.73-5.81,3.91-5.8,8.73-5.8,8.74,2.6,8.74,5.8S93.42,127.12,93.42,127.12Zm26.71-19.86c-3.48,0-6.31-6.78-6.31-15.14S116.65,77,120.13,77s6.31,6.78,6.31,15.14S123.62,107.26,120.13,107.26Z"/></g></g></svg>