<svg xmlns="http://www.w3.org/2000/svg" viewBox="0 0 189.88 187.25"><defs><style>.cls-1{fill:none;stroke:#fff;stroke-miterlimit:10;stroke-width:3px;}.cls-2{fill:#fff;}</style></defs><title>Asset 2</title><g id="Layer_2" data-name="Layer 2"><g id="Layer_1-2" data-name="Layer 1"><path class="cls-1" d="M174.19,108.13c2.16-2.23,8.38-9,7.51-13.17,0,0-13.51-1.75-19.63-28.83,15.12-4.41,28.36-24.24,26-35.69C185.22,16.28,169.53,1.5,155.45,1.5s-18.12,12.75-18.12,27.22c0,1.06,0,2.19.13,3.36a62.2,62.2,0,0,0-16.3-3.93h0c-30.66-4-49-19-52.74-22.26a.52.52,0,0,0-.73,0,.49.49,0,0,0-.13.28c-.48,2.89-1.59,12,1.1,20.13A16,16,0,0,0,62.22,25C58.76,25,54,27.45,49.33,31c.07-.3.14-.6.2-.9,3.26-16.49-8.45-26.68-24-24.67-13.16,1.73-24,11.08-24,24.7s11,25.72,24.29,25.72a20,20,0,0,0,3.86-.37C25.13,92.76,8.2,95,8.2,95c-.86,4.11,5.26,10.84,7.47,13.12a1,1,0,0,1-.11,1.36h0l-.08.07c-3.59,2.13-9.38,3-9.38,3s-5,24.39,17.36,38.27a.48.48,0,0,1,.17.66.47.47,0,0,1-.44.24l-5-.25c0,18.65,27.23,34.28,60.77,34.28h32c33.57,0,61-15.27,61-33.94h-5.3a.51.51,0,0,1-.55-.47.53.53,0,0,1,.28-.49c22.42-13.87,17.36-38.31,17.36-38.31s-5.89-1-9.47-3.1a.86.86,0,0,1-.25-1.18Z"/><ellipse class="cls-2" cx="121.63" cy="93.62" rx="6.31" ry="15.14"/><ellipse class="cls-2" cx="68.22" cy="93.62" rx="6.31" ry="15.14"/><path class="cls-2" d="M103.66,122.81c0,3.21-8.74,5.81-8.74,5.81s-8.73-2.6-8.73-5.81,3.91-5.8,8.73-5.8S103.66,119.61,103.66,122.81Z"/></g></g></svg>